<svg xmlns="http://www.w3.org/2000/svg" viewBox="0 0 24 24" fill="currentColor">
  <path d="M4.067 2.411a2.25 2.25 0 0 0-2.07 2.183v14.812a2.25 2.25 0 0 0 2.247 2.247h10.944a2.25 2.25 0 0 0 2.247-2.247V9.788l-5.25-5.25H4.067ZM3.75 19.5v-15a.75.75 0 0 1 .75-.75h5.25a.75.75 0 0 1 .53.22l6.75 6.75a.75.75 0 0 1 0 1.06l-6.75 6.75a.75.75 0 0 1-.53.22H4.5a.75.75 0 0 1-.75-.75Z" />
  <path d="M14.25 5.25a.75.75 0 0 0-1.5 0v3.75a.75.75 0 0 0 1.5 0V5.25Z" />
  <path d="M17.25 7.5a.75.75 0 0 0-1.5 0v.75a.75.75 0 0 0 1.5 0V7.5Z" />
</svg>